<svg width="510" height="97" viewBox="0 0 510 97" fill="none" xmlns="http://www.w3.org/2000/svg">
<g clip-path="url(#clip0_414_222)">
<path d="M140.31 16.7402H151.1V62.4302C151.1 73.9202 143.64 82.6402 130.89 82.6402C123.32 82.6402 116.51 79.6102 112.64 71.9602L119.9 66.6102C121.97 70.2502 125.17 72.5502 129.91 72.5502C135.96 72.5502 140.31 68.7402 140.31 60.6702V16.7402Z" fill="black"/>
<path d="M177.26 73.9804C181.35 73.9804 185.42 72.6904 185.42 68.9104C185.42 59.8604 161.54 66.1104 161.54 49.1804C161.54 39.5404 169.25 35.1104 178.55 35.1104C184.72 35.1104 190.27 37.0704 194.5 40.3804L190.52 47.0004C187.07 44.8104 182.76 43.5504 179.22 43.5504C175.44 43.5504 171.9 45.0103 171.9 48.4604C171.9 57.4304 195.95 51.6604 195.95 68.4704C195.95 78.1704 187.96 82.6504 177.84 82.6504C170.3 82.6504 165.39 80.1303 159.87 75.9203L164.61 69.5303C168.53 72.2203 172.46 73.9903 177.25 73.9903L177.26 73.9804Z" fill="black"/>
<path d="M202.41 58.9001C202.41 44.7201 212.7 35.1001 226.12 35.1001C239.54 35.1001 249.78 44.5701 249.78 58.7601C249.78 72.9501 239.38 82.6401 226.01 82.6401C212.64 82.6401 202.41 73.0501 202.41 58.9001ZM239.08 58.8101C239.08 50.4001 233.53 44.4601 226.1 44.4601C218.67 44.4601 213.04 50.3701 213.04 58.8701C213.04 67.3701 218.59 73.3601 226.02 73.3601C233.45 73.3601 239.08 67.2801 239.08 58.8101Z" fill="black"/>
<path d="M290.11 81.7103V54.5203C290.11 48.4703 286.77 44.5703 280.66 44.5703C273.96 44.5703 269.84 49.3303 269.84 56.0903V81.7103H259.19V36.0203H267.91L268.81 42.2403C272.26 37.4803 277.7 35.0903 283.83 35.0903C294.93 35.0903 300.7 42.7103 300.7 53.9303V81.7103H290.1H290.11Z" fill="black"/>
<path d="M313.69 16.7402H337.18C351.14 16.7402 359.52 25.2602 359.52 36.9202C359.52 45.9202 354.53 52.9802 346.23 55.9002L361.9 81.7202H348.89L334.87 57.3302H324.53V81.7202H313.68V16.7402H313.69ZM335.73 47.7102C343.75 47.7102 348.51 43.9002 348.51 37.0902C348.51 29.9402 343.3 26.3302 335.73 26.3302H324.55V47.7202H335.73V47.7102Z" fill="black"/>
<path d="M365.65 58.9001C365.65 44.7201 375.94 35.1001 389.36 35.1001C402.78 35.1001 413.02 44.5701 413.02 58.7601C413.02 72.9501 402.62 82.6401 389.25 82.6401C375.88 82.6401 365.65 73.0501 365.65 58.9001ZM402.31 58.8101C402.31 50.4001 396.76 44.4601 389.33 44.4601C381.9 44.4601 376.27 50.3701 376.27 58.8701C376.27 67.3701 381.82 73.3601 389.25 73.3601C396.68 73.3601 402.31 67.2801 402.31 58.8101Z" fill="black"/>
<path d="M460.04 77.0601C455.42 80.5601 449.58 82.6401 443.45 82.6401C431.51 82.6401 419.82 74.7901 419.82 59.1501C419.82 43.5101 430.53 35.1001 443.59 35.1001C449.31 35.1001 455.22 36.8701 459.43 40.0601L454.97 47.4901C451.97 45.5301 448.1 44.3501 444.46 44.3501C436.39 44.3501 430.44 50.1801 430.44 58.8401C430.44 67.5001 436.3 73.3601 444.34 73.3601C448.01 73.3601 451.94 72.1301 454.94 70.0501L460.04 77.0601Z" fill="black"/>
<path d="M478.58 61.5602V81.7102H467.98V15.7002L478.58 13.7402V52.2002H481.3L495.03 36.0302H507.95L490.46 56.6602L509.55 81.7202H496.68L481.32 61.5702H478.57L478.58 61.5602Z" fill="black"/>
<path d="M38.5599 53.9403L52.1799 80.5303C52.3799 80.8903 52.4099 81.3103 52.2599 81.6903L46.4799 95.5103C46.1399 96.3703 45.0599 96.6603 44.3399 96.0703L33.4799 87.2303C33.1299 86.9403 32.9399 86.4903 32.9799 86.0403L35.9899 54.4703C36.1199 53.1303 37.8899 52.7603 38.5499 53.9303L38.5599 53.9403Z" fill="#00B3B7"/>
<path d="M36.27 43.6501L23.98 70.8801C23.82 71.2601 23.51 71.5501 23.12 71.6701L8.71002 75.7701C7.83002 76.0401 6.93002 75.3801 6.94002 74.4501L7.08002 60.4501C7.08002 59.9901 7.32002 59.5701 7.70002 59.3201L34.26 41.9901C35.38 41.2601 36.78 42.4101 36.27 43.6501Z" fill="#00B3B7"/>
<path d="M42.8801 35.4304L13.9301 42.8004C13.5401 42.9104 13.1101 42.8504 12.7801 42.6204L0.600078 33.9104C-0.169922 33.3904 -0.199922 32.2704 0.530078 31.7004L11.5601 23.0804C11.9201 22.8004 12.4001 22.7204 12.8301 22.8604L42.9301 32.8204C44.2001 33.2404 44.1701 35.0504 42.8801 35.4304Z" fill="#00B3B7"/>
<path d="M53.4301 35.4802L29.6201 17.4402C29.2901 17.2002 29.0701 16.8302 29.0401 16.4202L28.2501 1.4602C28.1801 0.540204 29.0301 -0.189796 29.9301 0.0302035L43.5401 3.2802C43.9801 3.3902 44.3501 3.7102 44.5101 4.1402L55.4901 33.8902C55.9501 35.1502 54.5201 36.2502 53.4201 35.4802H53.4301Z" fill="#00B3B7"/>
<path d="M59.9702 43.76L59.2302 13.9C59.2102 13.49 59.3702 13.09 59.6602 12.82L70.8602 2.87998C71.5402 2.24998 72.6302 2.45998 73.0302 3.29998L78.9802 15.97C79.1702 16.38 79.1502 16.87 78.9102 17.26L62.5002 44.39C61.8102 45.54 60.0402 45.1 59.9702 43.76Z" fill="#00B3B7"/>
<path d="M57.5701 54.03L80.4601 34.83C80.7601 34.56 81.1702 34.43 81.5802 34.49L96.3401 37.05C97.2601 37.19 97.7701 38.18 97.3601 39.01L91.1602 51.56C90.9602 51.97 90.5601 52.25 90.1101 52.31L58.6601 56.4C57.3301 56.57 56.5701 54.93 57.5701 54.03Z" fill="#00B3B7"/>
<path d="M48.0501 58.5603L77.3302 64.4803C77.7302 64.5503 78.0902 64.7903 78.2902 65.1503L85.4901 78.2803C85.9501 79.0803 85.5001 80.1003 84.6001 80.3003L70.9201 83.2803C70.4701 83.3803 70.0102 83.2403 69.6802 82.9303L46.8802 60.8903C45.9202 59.9603 46.7301 58.3403 48.0501 58.5603Z" fill="#00B3B7"/>
</g>
<defs>
<clipPath id="clip0_414_222">
<rect width="509.55" height="96.38" fill="white"/>
</clipPath>
</defs>
</svg>
