<svg width="256" height="256" viewBox="0 0 256 256" fill="none" xmlns="http://www.w3.org/2000/svg">
<path d="M101.864 142.329L136.787 210.508C137.3 211.431 137.377 212.508 136.992 213.482L122.172 248.917C121.3 251.122 118.531 251.866 116.685 250.353L88.839 227.687C87.9416 226.943 87.4544 225.79 87.557 224.636L95.2748 143.688C95.6081 140.253 100.146 139.304 101.839 142.304L101.864 142.329Z" fill="#00B3B7"/>
<path d="M95.9936 115.945L64.4813 185.765C64.0711 186.739 63.2762 187.483 62.2762 187.79L25.3281 198.303C23.0718 198.995 20.7641 197.303 20.7898 194.918L21.1487 159.021C21.1487 157.842 21.7641 156.765 22.7384 156.124L90.8398 111.689C93.7116 109.817 97.3013 112.766 95.9936 115.945Z" fill="#00B3B7"/>
<path d="M112.942 94.8695L38.7125 113.767C37.7125 114.049 36.61 113.895 35.7639 113.305L4.53363 90.9722C2.5593 89.6389 2.48238 86.7671 4.35414 85.3056L32.6357 63.2034C33.5588 62.4855 34.7895 62.2804 35.8921 62.6393L113.07 88.1773C116.327 89.2542 116.25 93.8952 112.942 94.8695Z" fill="#00B3B7"/>
<path d="M139.993 94.9971L78.9426 48.7415C78.0964 48.1261 77.5323 47.1774 77.4554 46.1261L75.4298 7.76783C75.2503 5.4089 77.4298 3.53714 79.7374 4.10123L114.634 12.4344C115.762 12.7165 116.711 13.537 117.121 14.6395L145.275 90.9202C146.454 94.1509 142.788 96.9714 139.967 94.9971H139.993Z" fill="#00B3B7"/>
<path d="M156.762 116.227L154.865 39.6644C154.813 38.6131 155.224 37.5875 155.967 36.8952L184.685 11.4085C186.428 9.79312 189.223 10.3316 190.249 12.4854L205.505 44.972C205.992 46.0233 205.941 47.2797 205.325 48.2796L163.249 117.843C161.48 120.791 156.942 119.663 156.762 116.227Z" fill="#00B3B7"/>
<path d="M150.609 142.56L209.3 93.3296C210.069 92.6373 211.121 92.304 212.172 92.4579L250.017 99.0218C252.376 99.3808 253.684 101.919 252.633 104.047L236.736 136.226C236.223 137.278 235.197 137.996 234.043 138.149L153.404 148.636C149.993 149.072 148.045 144.867 150.609 142.56Z" fill="#00B3B7"/>
<path d="M126.198 154.176L201.274 169.355C202.3 169.535 203.223 170.15 203.736 171.073L222.197 204.739C223.376 206.791 222.222 209.406 219.915 209.919L184.838 217.56C183.685 217.816 182.505 217.457 181.659 216.662L123.198 160.15C120.737 157.766 122.814 153.612 126.198 154.176Z" fill="#00B3B7"/>
</svg>
